<svg width="60" height="60" viewBox="0 0 60 60" fill="none" xmlns="http://www.w3.org/2000/svg">
<path  d="M7.13636 36H3.01136V24.3636H7.17045C8.34091 24.3636 9.34848 24.5966 10.1932 25.0625C11.0379 25.5246 11.6875 26.1894 12.142 27.0568C12.6004 27.9242 12.8295 28.9621 12.8295 30.1705C12.8295 31.3826 12.6004 32.4242 12.142 33.2955C11.6875 34.1667 11.0341 34.8352 10.1818 35.3011C9.33333 35.767 8.31818 36 7.13636 36ZM5.47159 33.892H7.03409C7.76136 33.892 8.37311 33.7633 8.86932 33.5057C9.36932 33.2443 9.74432 32.8409 9.99432 32.2955C10.2481 31.7462 10.375 31.0379 10.375 30.1705C10.375 29.3106 10.2481 28.608 9.99432 28.0625C9.74432 27.517 9.37121 27.1155 8.875 26.858C8.37879 26.6004 7.76705 26.4716 7.03977 26.4716H5.47159V33.892ZM18.5838 36.1705C17.6861 36.1705 16.9134 35.9886 16.2656 35.625C15.6217 35.2576 15.1255 34.7386 14.777 34.0682C14.4285 33.3939 14.2543 32.5966 14.2543 31.6761C14.2543 30.7784 14.4285 29.9905 14.777 29.3125C15.1255 28.6345 15.616 28.1061 16.2486 27.7273C16.8849 27.3485 17.6312 27.1591 18.4872 27.1591C19.063 27.1591 19.599 27.2519 20.0952 27.4375C20.5952 27.6193 21.0308 27.8939 21.402 28.2614C21.777 28.6288 22.0687 29.0909 22.277 29.6477C22.4853 30.2008 22.5895 30.8485 22.5895 31.5909V32.2557H15.2202V30.7557H20.3111C20.3111 30.4072 20.2353 30.0985 20.0838 29.8295C19.9323 29.5606 19.7221 29.3504 19.4531 29.1989C19.188 29.0436 18.8793 28.9659 18.527 28.9659C18.1596 28.9659 17.8338 29.0511 17.5497 29.2216C17.2694 29.3883 17.0497 29.6136 16.8906 29.8977C16.7315 30.178 16.6501 30.4905 16.6463 30.8352V32.2614C16.6463 32.6932 16.7259 33.0663 16.8849 33.3807C17.0478 33.6951 17.277 33.9375 17.5724 34.108C17.8679 34.2784 18.2183 34.3636 18.6236 34.3636C18.8925 34.3636 19.1387 34.3258 19.3622 34.25C19.5857 34.1742 19.777 34.0606 19.9361 33.9091C20.0952 33.7576 20.2164 33.572 20.2997 33.3523L22.5384 33.5C22.4247 34.0379 22.1918 34.5076 21.8395 34.9091C21.491 35.3068 21.0402 35.6174 20.4872 35.8409C19.938 36.0606 19.3035 36.1705 18.5838 36.1705ZM31.4304 29.7614L29.2145 29.8977C29.1766 29.7083 29.0952 29.5379 28.9702 29.3864C28.8452 29.2311 28.6804 29.108 28.4759 29.017C28.2751 28.9223 28.0346 28.875 27.7543 28.875C27.3793 28.875 27.063 28.9545 26.8054 29.1136C26.5478 29.2689 26.419 29.4773 26.419 29.7386C26.419 29.947 26.5024 30.1231 26.669 30.267C26.8357 30.411 27.1217 30.5265 27.527 30.6136L29.1065 30.9318C29.955 31.1061 30.5876 31.3864 31.0043 31.7727C31.4209 32.1591 31.6293 32.6667 31.6293 33.2955C31.6293 33.8674 31.4607 34.3693 31.1236 34.8011C30.7902 35.233 30.3319 35.5701 29.7486 35.8125C29.169 36.0511 28.5005 36.1705 27.7429 36.1705C26.5876 36.1705 25.6671 35.9299 24.9815 35.4489C24.2997 34.964 23.9001 34.3049 23.7827 33.4716L26.1634 33.3466C26.2353 33.6989 26.4096 33.9678 26.6861 34.1534C26.9626 34.3352 27.3168 34.4261 27.7486 34.4261C28.1728 34.4261 28.5137 34.3447 28.7713 34.1818C29.0327 34.0152 29.1652 33.8011 29.169 33.5398C29.1652 33.3201 29.0724 33.1402 28.8906 33C28.7088 32.8561 28.4285 32.7462 28.0497 32.6705L26.5384 32.3693C25.6861 32.1989 25.0516 31.9034 24.6349 31.483C24.2221 31.0625 24.0156 30.5265 24.0156 29.875C24.0156 29.3144 24.1671 28.8314 24.4702 28.4261C24.777 28.0208 25.2069 27.7083 25.7599 27.4886C26.3168 27.2689 26.9683 27.1591 27.7145 27.1591C28.8168 27.1591 29.6842 27.392 30.3168 27.858C30.9531 28.3239 31.3243 28.9583 31.4304 29.7614ZM33.1534 36V27.2727H35.5739V36H33.1534ZM34.3693 26.1477C34.0095 26.1477 33.7008 26.0284 33.4432 25.7898C33.1894 25.5473 33.0625 25.2576 33.0625 24.9205C33.0625 24.5871 33.1894 24.3011 33.4432 24.0625C33.7008 23.8201 34.0095 23.6989 34.3693 23.6989C34.7292 23.6989 35.036 23.8201 35.2898 24.0625C35.5473 24.3011 35.6761 24.5871 35.6761 24.9205C35.6761 25.2576 35.5473 25.5473 35.2898 25.7898C35.036 26.0284 34.7292 26.1477 34.3693 26.1477ZM41.4446 39.4545C40.6605 39.4545 39.9882 39.3466 39.4276 39.1307C38.8707 38.9186 38.4276 38.6288 38.098 38.2614C37.7685 37.8939 37.5545 37.4811 37.456 37.0227L39.6946 36.7216C39.7628 36.8958 39.8707 37.0587 40.0185 37.2102C40.1662 37.3617 40.3613 37.483 40.6037 37.5739C40.8499 37.6686 41.1491 37.7159 41.5014 37.7159C42.0279 37.7159 42.4616 37.5871 42.8026 37.3295C43.1473 37.0758 43.3196 36.6496 43.3196 36.0511V34.4545H43.2173C43.1113 34.697 42.9522 34.9261 42.7401 35.142C42.5279 35.358 42.2552 35.5341 41.9219 35.6705C41.5885 35.8068 41.1908 35.875 40.7287 35.875C40.0734 35.875 39.4768 35.7235 38.9389 35.4205C38.4048 35.1136 37.9787 34.6458 37.6605 34.017C37.3461 33.3845 37.1889 32.5852 37.1889 31.6193C37.1889 30.6307 37.3499 29.8049 37.6719 29.142C37.9938 28.4792 38.4219 27.983 38.956 27.6534C39.4938 27.3239 40.0829 27.1591 40.723 27.1591C41.2116 27.1591 41.6207 27.2424 41.9503 27.4091C42.2798 27.572 42.545 27.7765 42.7457 28.0227C42.9503 28.2652 43.1075 28.5038 43.2173 28.7386H43.3082V27.2727H45.7116V36.0852C45.7116 36.8277 45.5298 37.4489 45.1662 37.9489C44.8026 38.4489 44.2988 38.8239 43.6548 39.0739C43.0147 39.3277 42.2779 39.4545 41.4446 39.4545ZM41.4957 34.0568C41.8859 34.0568 42.2154 33.9602 42.4844 33.767C42.7571 33.5701 42.9654 33.2898 43.1094 32.9261C43.2571 32.5587 43.331 32.1193 43.331 31.608C43.331 31.0966 43.259 30.6534 43.1151 30.2784C42.9711 29.8996 42.7628 29.6061 42.4901 29.3977C42.2173 29.1894 41.8859 29.0852 41.4957 29.0852C41.098 29.0852 40.7628 29.1932 40.4901 29.4091C40.2173 29.6212 40.0109 29.9167 39.8707 30.2955C39.7306 30.6742 39.6605 31.1117 39.6605 31.608C39.6605 32.1117 39.7306 32.5473 39.8707 32.9148C40.0147 33.2784 40.2211 33.5606 40.4901 33.7614C40.7628 33.9583 41.098 34.0568 41.4957 34.0568ZM50.0582 30.9545V36H47.6378V27.2727H49.9446V28.8125H50.0469C50.2401 28.3049 50.5639 27.9034 51.0185 27.608C51.473 27.3087 52.0241 27.1591 52.6719 27.1591C53.2779 27.1591 53.8063 27.2917 54.2571 27.5568C54.7079 27.822 55.0582 28.2008 55.3082 28.6932C55.5582 29.1818 55.6832 29.7652 55.6832 30.4432V36H53.2628V30.875C53.2666 30.3409 53.1302 29.9242 52.8537 29.625C52.5772 29.322 52.1965 29.1705 51.7116 29.1705C51.3859 29.1705 51.098 29.2405 50.848 29.3807C50.6018 29.5208 50.4086 29.7254 50.2685 29.9943C50.1321 30.2595 50.062 30.5795 50.0582 30.9545Z" fill="currentColor"/>
</svg>
