<svg width="60" height="60" viewBox="0 0 60 60" fill="none" xmlns="http://www.w3.org/2000/svg">
<path d="M12.0114 36V24.3636H14.4716V33.9716H19.4602V36H12.0114ZM25.0213 36.1705C24.1236 36.1705 23.3509 35.9886 22.7031 35.625C22.0592 35.2576 21.563 34.7386 21.2145 34.0682C20.866 33.3939 20.6918 32.5966 20.6918 31.6761C20.6918 30.7784 20.866 29.9905 21.2145 29.3125C21.563 28.6345 22.0535 28.1061 22.6861 27.7273C23.3224 27.3485 24.0687 27.1591 24.9247 27.1591C25.5005 27.1591 26.0365 27.2519 26.5327 27.4375C27.0327 27.6193 27.4683 27.8939 27.8395 28.2614C28.2145 28.6288 28.5062 29.0909 28.7145 29.6477C28.9228 30.2008 29.027 30.8485 29.027 31.5909V32.2557H21.6577V30.7557H26.7486C26.7486 30.4072 26.6728 30.0985 26.5213 29.8295C26.3698 29.5606 26.1596 29.3504 25.8906 29.1989C25.6255 29.0436 25.3168 28.9659 24.9645 28.9659C24.5971 28.9659 24.2713 29.0511 23.9872 29.2216C23.7069 29.3883 23.4872 29.6136 23.3281 29.8977C23.169 30.178 23.0876 30.4905 23.0838 30.8352V32.2614C23.0838 32.6932 23.1634 33.0663 23.3224 33.3807C23.4853 33.6951 23.7145 33.9375 24.0099 34.108C24.3054 34.2784 24.6558 34.3636 25.0611 34.3636C25.33 34.3636 25.5762 34.3258 25.7997 34.25C26.0232 34.1742 26.2145 34.0606 26.3736 33.9091C26.5327 33.7576 26.6539 33.572 26.7372 33.3523L28.9759 33.5C28.8622 34.0379 28.6293 34.5076 28.277 34.9091C27.9285 35.3068 27.4777 35.6174 26.9247 35.8409C26.3755 36.0606 25.741 36.1705 25.0213 36.1705ZM33.0952 36.1648C32.5384 36.1648 32.0421 36.0682 31.6065 35.875C31.1709 35.678 30.8262 35.3883 30.5724 35.0057C30.3224 34.6193 30.1974 34.1383 30.1974 33.5625C30.1974 33.0777 30.2865 32.6705 30.4645 32.3409C30.6425 32.0114 30.8849 31.7462 31.1918 31.5455C31.4986 31.3447 31.8471 31.1932 32.2372 31.0909C32.6312 30.9886 33.044 30.9167 33.4759 30.875C33.9834 30.822 34.3925 30.7727 34.7031 30.7273C35.0137 30.678 35.2391 30.6061 35.3793 30.5114C35.5194 30.4167 35.5895 30.2765 35.5895 30.0909V30.0568C35.5895 29.697 35.4759 29.4186 35.2486 29.2216C35.0251 29.0246 34.7069 28.9261 34.294 28.9261C33.8584 28.9261 33.5118 29.0227 33.2543 29.2159C32.9967 29.4053 32.8262 29.6439 32.7429 29.9318L30.5043 29.75C30.6179 29.2197 30.8414 28.7614 31.1747 28.375C31.508 27.9848 31.938 27.6856 32.4645 27.4773C32.9948 27.2652 33.6084 27.1591 34.3054 27.1591C34.7902 27.1591 35.2543 27.2159 35.6974 27.3295C36.1444 27.4432 36.5402 27.6193 36.8849 27.858C37.2334 28.0966 37.508 28.4034 37.7088 28.7784C37.9096 29.1496 38.0099 29.5947 38.0099 30.1136V36H35.7145V34.7898H35.6463C35.5062 35.0625 35.3187 35.303 35.0838 35.5114C34.849 35.7159 34.5668 35.8769 34.2372 35.9943C33.9077 36.108 33.527 36.1648 33.0952 36.1648ZM33.7884 34.4943C34.1444 34.4943 34.4588 34.4242 34.7315 34.2841C35.0043 34.1402 35.2183 33.947 35.3736 33.7045C35.5289 33.4621 35.6065 33.1875 35.6065 32.8807V31.9545C35.5308 32.0038 35.4266 32.0492 35.294 32.0909C35.1652 32.1288 35.0194 32.1648 34.8565 32.1989C34.6937 32.2292 34.5308 32.2576 34.3679 32.2841C34.205 32.3068 34.0573 32.3277 33.9247 32.3466C33.6406 32.3883 33.3925 32.4545 33.1804 32.5455C32.9683 32.6364 32.8035 32.7595 32.6861 32.9148C32.5687 33.0663 32.5099 33.2557 32.5099 33.483C32.5099 33.8125 32.6293 34.0644 32.8679 34.2386C33.1103 34.4091 33.4171 34.4943 33.7884 34.4943ZM42.3082 30.9545V36H39.8878V27.2727H42.1946V28.8125H42.2969C42.4901 28.3049 42.8139 27.9034 43.2685 27.608C43.723 27.3087 44.2741 27.1591 44.9219 27.1591C45.5279 27.1591 46.0563 27.2917 46.5071 27.5568C46.9579 27.822 47.3082 28.2008 47.5582 28.6932C47.8082 29.1818 47.9332 29.7652 47.9332 30.4432V36H45.5128V30.875C45.5166 30.3409 45.3802 29.9242 45.1037 29.625C44.8272 29.322 44.4465 29.1705 43.9616 29.1705C43.6359 29.1705 43.348 29.2405 43.098 29.3807C42.8518 29.5208 42.6586 29.7254 42.5185 29.9943C42.3821 30.2595 42.312 30.5795 42.3082 30.9545Z" fill="currentColor"/>
</svg>
