<?xml version="1.0" encoding="utf-8"?>
<!-- Generator: Adobe Illustrator 27.8.0, SVG Export Plug-In . SVG Version: 6.00 Build 0)  -->
<svg version="1.0" id="katman_1" xmlns="http://www.w3.org/2000/svg" xmlns:xlink="http://www.w3.org/1999/xlink" x="0px" y="0px"
	 viewBox="0 0 841.89 595.28" style="enable-background:new 0 0 841.89 595.28;" xml:space="preserve">
<style type="text/css">
	.st0{fill:currentColor;}
	.st1{fill:#FFDD34;}
	.st2{fill-rule:evenodd;clip-rule:evenodd;fill:#1D1D1E;}
</style>
<path  class="st0" d="M582.05,299.66v50.57h20.72v-47.47c0-21.14,28.78-21.18,28.78-21.18v-20.58c0,0-8.05,0.36-14.41,1.79
	C599.12,266.85,582.05,275.75,582.05,299.66z"/>
<path  class="st0" d="M425.88,259.99c8.07,0,18.15,4.57,23.64,12.6c5.68-7.3,15.03-12.23,26.58-12.42
	c14.67-0.19,32.82,8.94,32.82,36.34v53.67H488.2V296.5c0-9.13-6.6-15.7-16.49-15.7s-16.49,6.57-16.49,15.7v53.67H434.5V296.5
	c0-9.13-6.6-15.7-16.49-15.7c-9.9,0-16.68,6.57-16.68,15.7v53.67h-21.79v-87.47h21.79v8.79c5.87-7.12,14.48-11.51,24.56-11.51
	H425.88z"/>
<path  class="st0" d="M556.57,263.82v86.42h-21.07v-86.42H556.57z"/>
<path class="st0" d="M546.03,250.07c6.5,0,11.76-5.24,11.76-11.71c0-6.46-5.27-11.7-11.76-11.7s-11.76,5.24-11.76,11.7
	C534.27,244.83,539.53,250.07,546.03,250.07z"/>
<path class="st0" d="M687.81,259.8c-25.51,0-46.19,20.58-46.19,45.96s20.68,45.96,46.19,45.96c25.51,0,46.19-20.58,46.19-45.96
	S713.32,259.8,687.81,259.8z M687.81,331.06c-14.44,0-26.15-11.65-26.15-26.02s11.71-26.02,26.15-26.02
	c14.45,0,26.15,11.65,26.15,26.02S702.26,331.06,687.81,331.06z"/>
<path class="st1" d="M107.97,240.24c0-31.57,25.6-57.17,57.17-57.17h114.34c31.58,0,57.17,25.6,57.17,57.17v114.34
	c0,31.58-25.6,57.17-57.17,57.17H165.14c-31.57,0-57.17-25.6-57.17-57.17V240.24z"/>
<path class="st2" d="M260.01,226.66h-20.76l17.3,30.4l-38.06-30.4h-20.76l19.03,37.15l-39.79-37.15h-20.76l20.76,47.29l-20.76,94.57
	h20.76l39.79-101.32l-19.03,101.32h20.76l38.06-108.08l-17.3,108.08h20.76l38.06-118.22L260.01,226.66z"/>
</svg>
