<svg width="60" height="60" viewBox="0 0 60 60" fill="none" xmlns="http://www.w3.org/2000/svg">
<path d="M7.32386 27.7102C7.27841 27.2519 7.08333 26.8958 6.73864 26.642C6.39394 26.3883 5.92614 26.2614 5.33523 26.2614C4.93371 26.2614 4.5947 26.3182 4.31818 26.4318C4.04167 26.5417 3.82955 26.6951 3.68182 26.892C3.53788 27.089 3.46591 27.3125 3.46591 27.5625C3.45833 27.7708 3.50189 27.9527 3.59659 28.108C3.69508 28.2633 3.82955 28.3977 4 28.5114C4.17045 28.6212 4.36742 28.7178 4.59091 28.8011C4.81439 28.8807 5.05303 28.9489 5.30682 29.0057L6.35227 29.2557C6.85985 29.3693 7.32576 29.5208 7.75 29.7102C8.17424 29.8996 8.54167 30.1326 8.85227 30.4091C9.16288 30.6856 9.40341 31.0114 9.57386 31.3864C9.74811 31.7614 9.83712 32.1913 9.84091 32.6761C9.83712 33.3883 9.6553 34.0057 9.29545 34.5284C8.93939 35.0473 8.42424 35.4508 7.75 35.7386C7.07955 36.0227 6.27083 36.1648 5.32386 36.1648C4.38447 36.1648 3.56629 36.0208 2.86932 35.733C2.17614 35.4451 1.63447 35.0189 1.24432 34.4545C0.857955 33.8864 0.655303 33.1837 0.636364 32.3466H3.01705C3.04356 32.7367 3.1553 33.0625 3.35227 33.3239C3.55303 33.5814 3.82008 33.7765 4.15341 33.9091C4.49053 34.0379 4.87121 34.1023 5.29545 34.1023C5.71212 34.1023 6.07386 34.0417 6.38068 33.9205C6.69129 33.7992 6.93182 33.6307 7.10227 33.4148C7.27273 33.1989 7.35795 32.9508 7.35795 32.6705C7.35795 32.4091 7.2803 32.1894 7.125 32.0114C6.97348 31.8333 6.75 31.6818 6.45455 31.5568C6.16288 31.4318 5.80492 31.3182 5.38068 31.2159L4.11364 30.8977C3.13258 30.6591 2.35795 30.286 1.78977 29.7784C1.22159 29.2708 0.939394 28.5871 0.943182 27.7273C0.939394 27.0227 1.12689 26.4072 1.50568 25.8807C1.88826 25.3542 2.41288 24.9432 3.07955 24.6477C3.74621 24.3523 4.50379 24.2045 5.35227 24.2045C6.21591 24.2045 6.9697 24.3523 7.61364 24.6477C8.26136 24.9432 8.76515 25.3542 9.125 25.8807C9.48485 26.4072 9.67045 27.017 9.68182 27.7102H7.32386ZM21.7628 28.4375H19.2741C19.2287 28.1155 19.1359 27.8295 18.9957 27.5795C18.8556 27.3258 18.6757 27.1098 18.456 26.9318C18.2363 26.7538 17.9825 26.6174 17.6946 26.5227C17.4105 26.428 17.1018 26.3807 16.7685 26.3807C16.1662 26.3807 15.6416 26.5303 15.1946 26.8295C14.7476 27.125 14.401 27.5568 14.1548 28.125C13.9086 28.6894 13.7855 29.375 13.7855 30.1818C13.7855 31.0114 13.9086 31.7083 14.1548 32.2727C14.4048 32.8371 14.7533 33.2633 15.2003 33.5511C15.6473 33.839 16.1643 33.983 16.7514 33.983C17.081 33.983 17.3859 33.9394 17.6662 33.8523C17.9503 33.7652 18.2022 33.6383 18.4219 33.4716C18.6416 33.3011 18.8234 33.0947 18.9673 32.8523C19.1151 32.6098 19.2173 32.3333 19.2741 32.0227L21.7628 32.0341C21.6984 32.5682 21.5374 33.0833 21.2798 33.5795C21.026 34.072 20.6832 34.5133 20.2514 34.9034C19.8234 35.2898 19.312 35.5966 18.7173 35.8239C18.1264 36.0473 17.4579 36.1591 16.7116 36.1591C15.6738 36.1591 14.7457 35.9242 13.9276 35.4545C13.1132 34.9848 12.4692 34.3049 11.9957 33.4148C11.526 32.5246 11.2912 31.447 11.2912 30.1818C11.2912 28.9129 11.5298 27.8333 12.0071 26.9432C12.4844 26.053 13.1321 25.375 13.9503 24.9091C14.7685 24.4394 15.6889 24.2045 16.7116 24.2045C17.3859 24.2045 18.0109 24.2992 18.5866 24.4886C19.1662 24.678 19.6795 24.9545 20.1264 25.3182C20.5734 25.678 20.937 26.1193 21.2173 26.642C21.5014 27.1648 21.6832 27.7633 21.7628 28.4375ZM23.527 36V24.3636H28.1179C28.9967 24.3636 29.7467 24.5208 30.3679 24.8352C30.9929 25.1458 31.4683 25.5871 31.794 26.1591C32.1236 26.7273 32.2884 27.3958 32.2884 28.1648C32.2884 28.9375 32.1217 29.6023 31.7884 30.1591C31.455 30.7121 30.9721 31.1364 30.3395 31.4318C29.7107 31.7273 28.9493 31.875 28.0554 31.875H24.9815V29.8977H27.6577C28.1274 29.8977 28.5175 29.8333 28.8281 29.7045C29.1387 29.5758 29.3698 29.3826 29.5213 29.125C29.6766 28.8674 29.7543 28.5473 29.7543 28.1648C29.7543 27.7784 29.6766 27.4527 29.5213 27.1875C29.3698 26.9223 29.1368 26.7216 28.8224 26.5852C28.5118 26.4451 28.1198 26.375 27.6463 26.375H25.9872V36H23.527ZM29.8111 30.7045L32.7031 36H29.9872L27.1577 30.7045H29.8111ZM41.2145 24.3636H43.6747V31.9205C43.6747 32.7689 43.4721 33.5114 43.0668 34.1477C42.6652 34.7841 42.1027 35.2803 41.3793 35.6364C40.6558 35.9886 39.813 36.1648 38.8509 36.1648C37.8849 36.1648 37.0402 35.9886 36.3168 35.6364C35.5933 35.2803 35.0308 34.7841 34.6293 34.1477C34.2277 33.5114 34.027 32.7689 34.027 31.9205V24.3636H36.4872V31.7102C36.4872 32.1534 36.5838 32.5473 36.777 32.892C36.974 33.2367 37.2505 33.5076 37.6065 33.7045C37.9626 33.9015 38.3774 34 38.8509 34C39.3281 34 39.7429 33.9015 40.0952 33.7045C40.4512 33.5076 40.7259 33.2367 40.919 32.892C41.116 32.5473 41.2145 32.1534 41.2145 31.7102V24.3636ZM45.6989 24.3636H48.733L51.9375 32.1818H52.0739L55.2784 24.3636H58.3125V36H55.9261V28.4261H55.8295L52.8182 35.9432H51.1932L48.1818 28.3977H48.0852V36H45.6989V24.3636Z" fill="currentColor"/>
</svg>
